<mxfile host="app.diagrams.net">
  <diagram name="移行前後の比較" id="before-after">
    <mxGraphModel dx="1422" dy="794" grid="1" gridSize="10" guides="1" tooltips="1" connect="1" arrows="1" fold="1" page="1" pageScale="1" pageWidth="1600" pageHeight="900" background="#ffffff">
      <root>
        <mxCell id="0"/>
        <mxCell id="1" parent="0"/>

        <!-- Title -->
        <mxCell id="title" value="AWS ECSからDatabricksへの移行効果" style="text;html=1;strokeColor=none;fillColor=none;align=center;verticalAlign=middle;whiteSpace=wrap;rounded=0;fontSize=30;fontStyle=1;fontColor=#232F3E;" vertex="1" parent="1">
          <mxGeometry x="400" y="30" width="800" height="50" as="geometry"/>
        </mxCell>

        <!-- Left: Before (AWS ECS) -->
        <mxCell id="before-bg" value="" style="rounded=1;whiteSpace=wrap;html=1;fillColor=#ffcccc;strokeColor=#CC0000;strokeWidth=4;opacity=30;" vertex="1" parent="1">
          <mxGeometry x="80" y="120" width="680" height="700" as="geometry"/>
        </mxCell>

        <mxCell id="before-title" value="BEFORE：AWS ECS環境" style="text;html=1;strokeColor=none;fillColor=none;align=center;verticalAlign=middle;whiteSpace=wrap;rounded=0;fontSize=26;fontStyle=1;fontColor=#CC0000;" vertex="1" parent="1">
          <mxGeometry x="180" y="140" width="480" height="40" as="geometry"/>
        </mxCell>

        <!-- Problem 1 -->
        <mxCell id="prob1-icon" value="📚" style="text;html=1;strokeColor=none;fillColor=none;align=center;verticalAlign=middle;whiteSpace=wrap;rounded=0;fontSize=60;" vertex="1" parent="1">
          <mxGeometry x="120" y="220" width="100" height="80" as="geometry"/>
        </mxCell>
        <mxCell id="prob1-box" value="学習コストが高い" style="rounded=1;whiteSpace=wrap;html=1;fillColor=#ffffff;strokeColor=#CC0000;strokeWidth=2;fontSize=16;fontStyle=1;align=left;spacingLeft=10;" vertex="1" parent="1">
          <mxGeometry x="240" y="220" width="480" height="40" as="geometry"/>
        </mxCell>
        <mxCell id="prob1-detail" value="Docker、ECR、ECS、CloudWatch...&lt;br&gt;インフラ知識習得に時間を取られる" style="text;html=1;strokeColor=none;fillColor=none;align=left;verticalAlign=middle;whiteSpace=wrap;rounded=0;fontSize=14;spacingLeft=10;" vertex="1" parent="1">
          <mxGeometry x="240" y="265" width="480" height="35" as="geometry"/>
        </mxCell>

        <!-- Problem 2 -->
        <mxCell id="prob2-icon" value="🐌" style="text;html=1;strokeColor=none;fillColor=none;align=center;verticalAlign=middle;whiteSpace=wrap;rounded=0;fontSize=60;" vertex="1" parent="1">
          <mxGeometry x="120" y="330" width="100" height="80" as="geometry"/>
        </mxCell>
        <mxCell id="prob2-box" value="開発サイクルが遅い" style="rounded=1;whiteSpace=wrap;html=1;fillColor=#ffffff;strokeColor=#CC0000;strokeWidth=2;fontSize=16;fontStyle=1;align=left;spacingLeft=10;" vertex="1" parent="1">
          <mxGeometry x="240" y="330" width="480" height="40" as="geometry"/>
        </mxCell>
        <mxCell id="prob2-detail" value="最短15分～1時間以上の待機時間&lt;br&gt;トライアンドエラーが困難" style="text;html=1;strokeColor=none;fillColor=none;align=left;verticalAlign=middle;whiteSpace=wrap;rounded=0;fontSize=14;spacingLeft=10;" vertex="1" parent="1">
          <mxGeometry x="240" y="375" width="480" height="35" as="geometry"/>
        </mxCell>

        <!-- Problem 3 -->
        <mxCell id="prob3-icon" value="😰" style="text;html=1;strokeColor=none;fillColor=none;align=center;verticalAlign=middle;whiteSpace=wrap;rounded=0;fontSize=60;" vertex="1" parent="1">
          <mxGeometry x="120" y="440" width="100" height="80" as="geometry"/>
        </mxCell>
        <mxCell id="prob3-box" value="デバッグが困難" style="rounded=1;whiteSpace=wrap;html=1;fillColor=#ffffff;strokeColor=#CC0000;strokeWidth=2;fontSize=16;fontStyle=1;align=left;spacingLeft=10;" vertex="1" parent="1">
          <mxGeometry x="240" y="440" width="480" height="40" as="geometry"/>
        </mxCell>
        <mxCell id="prob3-detail" value="ログ確認のみ&lt;br&gt;問題箇所の特定に時間がかかる" style="text;html=1;strokeColor=none;fillColor=none;align=left;verticalAlign=middle;whiteSpace=wrap;rounded=0;fontSize=14;spacingLeft=10;" vertex="1" parent="1">
          <mxGeometry x="240" y="485" width="480" height="35" as="geometry"/>
        </mxCell>

        <!-- Problem 4 -->
        <mxCell id="prob4-icon" value="⏳" style="text;html=1;strokeColor=none;fillColor=none;align=center;verticalAlign=middle;whiteSpace=wrap;rounded=0;fontSize=60;" vertex="1" parent="1">
          <mxGeometry x="120" y="550" width="100" height="80" as="geometry"/>
        </mxCell>
        <mxCell id="prob4-box" value="本質的なスキル習得時間が不足" style="rounded=1;whiteSpace=wrap;html=1;fillColor=#ffffff;strokeColor=#CC0000;strokeWidth=2;fontSize=16;fontStyle=1;align=left;spacingLeft=10;" vertex="1" parent="1">
          <mxGeometry x="240" y="550" width="480" height="40" as="geometry"/>
        </mxCell>
        <mxCell id="prob4-detail" value="インターン期間中に機械学習やデータ分析に&lt;br&gt;集中できない" style="text;html=1;strokeColor=none;fillColor=none;align=left;verticalAlign=middle;whiteSpace=wrap;rounded=0;fontSize=14;spacingLeft=10;" vertex="1" parent="1">
          <mxGeometry x="240" y="595" width="480" height="35" as="geometry"/>
        </mxCell>

        <!-- Intern Sad -->
        <mxCell id="intern-sad" value="😭" style="text;html=1;strokeColor=none;fillColor=none;align=center;verticalAlign=middle;whiteSpace=wrap;rounded=0;fontSize=80;" vertex="1" parent="1">
          <mxGeometry x="330" y="680" width="140" height="100" as="geometry"/>
        </mxCell>

        <!-- Right: After (Databricks) -->
        <mxCell id="after-bg" value="" style="rounded=1;whiteSpace=wrap;html=1;fillColor=#d5e8d4;strokeColor=#00AA00;strokeWidth=4;opacity=30;" vertex="1" parent="1">
          <mxGeometry x="840" y="120" width="680" height="700" as="geometry"/>
        </mxCell>

        <mxCell id="after-title" value="AFTER：Databricks環境" style="text;html=1;strokeColor=none;fillColor=none;align=center;verticalAlign=middle;whiteSpace=wrap;rounded=0;fontSize=26;fontStyle=1;fontColor=#00AA00;" vertex="1" parent="1">
          <mxGeometry x="940" y="140" width="480" height="40" as="geometry"/>
        </mxCell>

        <!-- Benefit 1 -->
        <mxCell id="ben1-icon" value="✨" style="text;html=1;strokeColor=none;fillColor=none;align=center;verticalAlign=middle;whiteSpace=wrap;rounded=0;fontSize=60;" vertex="1" parent="1">
          <mxGeometry x="880" y="220" width="100" height="80" as="geometry"/>
        </mxCell>
        <mxCell id="ben1-box" value="学習コストがほぼゼロ" style="rounded=1;whiteSpace=wrap;html=1;fillColor=#ffffff;strokeColor=#00AA00;strokeWidth=2;fontSize=16;fontStyle=1;align=left;spacingLeft=10;" vertex="1" parent="1">
          <mxGeometry x="1000" y="220" width="480" height="40" as="geometry"/>
        </mxCell>
        <mxCell id="ben1-detail" value="ノートブックに直接コードを書くだけ&lt;br&gt;インフラ知識が不要に" style="text;html=1;strokeColor=none;fillColor=none;align=left;verticalAlign=middle;whiteSpace=wrap;rounded=0;fontSize=14;spacingLeft=10;" vertex="1" parent="1">
          <mxGeometry x="1000" y="265" width="480" height="35" as="geometry"/>
        </mxCell>

        <!-- Benefit 2 -->
        <mxCell id="ben2-icon" value="⚡" style="text;html=1;strokeColor=none;fillColor=none;align=center;verticalAlign=middle;whiteSpace=wrap;rounded=0;fontSize=60;" vertex="1" parent="1">
          <mxGeometry x="880" y="330" width="100" height="80" as="geometry"/>
        </mxCell>
        <mxCell id="ben2-box" value="開発サイクルが超高速" style="rounded=1;whiteSpace=wrap;html=1;fillColor=#ffffff;strokeColor=#00AA00;strokeWidth=2;fontSize=16;fontStyle=1;align=left;spacingLeft=10;" vertex="1" parent="1">
          <mxGeometry x="1000" y="330" width="480" height="40" as="geometry"/>
        </mxCell>
        <mxCell id="ben2-detail" value="1-2分で完結（セル実行は数秒）&lt;br&gt;即座にトライアンドエラー可能" style="text;html=1;strokeColor=none;fillColor=none;align=left;verticalAlign=middle;whiteSpace=wrap;rounded=0;fontSize=14;spacingLeft=10;" vertex="1" parent="1">
          <mxGeometry x="1000" y="375" width="480" height="35" as="geometry"/>
        </mxCell>

        <!-- Benefit 3 -->
        <mxCell id="ben3-icon" value="🔍" style="text;html=1;strokeColor=none;fillColor=none;align=center;verticalAlign=middle;whiteSpace=wrap;rounded=0;fontSize=60;" vertex="1" parent="1">
          <mxGeometry x="880" y="440" width="100" height="80" as="geometry"/>
        </mxCell>
        <mxCell id="ben3-box" value="デバッグが容易" style="rounded=1;whiteSpace=wrap;html=1;fillColor=#ffffff;strokeColor=#00AA00;strokeWidth=2;fontSize=16;fontStyle=1;align=left;spacingLeft=10;" vertex="1" parent="1">
          <mxGeometry x="1000" y="440" width="480" height="40" as="geometry"/>
        </mxCell>
        <mxCell id="ben3-detail" value="セル単位で実行・即座に結果確認&lt;br&gt;変数状態を保持したままデバッグ" style="text;html=1;strokeColor=none;fillColor=none;align=left;verticalAlign=middle;whiteSpace=wrap;rounded=0;fontSize=14;spacingLeft=10;" vertex="1" parent="1">
          <mxGeometry x="1000" y="485" width="480" height="35" as="geometry"/>
        </mxCell>

        <!-- Benefit 4 -->
        <mxCell id="ben4-icon" value="🎯" style="text;html=1;strokeColor=none;fillColor=none;align=center;verticalAlign=middle;whiteSpace=wrap;rounded=0;fontSize=60;" vertex="1" parent="1">
          <mxGeometry x="880" y="550" width="100" height="80" as="geometry"/>
        </mxCell>
        <mxCell id="ben4-box" value="本質的なスキル習得に集中" style="rounded=1;whiteSpace=wrap;html=1;fillColor=#ffffff;strokeColor=#00AA00;strokeWidth=2;fontSize=16;fontStyle=1;align=left;spacingLeft=10;" vertex="1" parent="1">
          <mxGeometry x="1000" y="550" width="480" height="40" as="geometry"/>
        </mxCell>
        <mxCell id="ben4-detail" value="機械学習とデータ分析に90%の時間を使える&lt;br&gt;インターン期間を最大限活用" style="text;html=1;strokeColor=none;fillColor=none;align=left;verticalAlign=middle;whiteSpace=wrap;rounded=0;fontSize=14;spacingLeft=10;" vertex="1" parent="1">
          <mxGeometry x="1000" y="595" width="480" height="35" as="geometry"/>
        </mxCell>

        <!-- Intern Happy -->
        <mxCell id="intern-happy" value="🎉" style="text;html=1;strokeColor=none;fillColor=none;align=center;verticalAlign=middle;whiteSpace=wrap;rounded=0;fontSize=80;" vertex="1" parent="1">
          <mxGeometry x="1090" y="680" width="140" height="100" as="geometry"/>
        </mxCell>

        <!-- Center Arrow -->
        <mxCell id="center-arrow" value="" style="shape=flexArrow;endArrow=classic;html=1;strokeWidth=5;fillColor=#ffcc99;strokeColor=#FF6600;width=60;endSize=10;" edge="1" parent="1">
          <mxGeometry width="50" height="50" relative="1" as="geometry">
            <mxPoint x="760" y="450" as="sourcePoint"/>
            <mxPoint x="840" y="450" as="targetPoint"/>
          </mxGeometry>
        </mxCell>
        <mxCell id="arrow-label" value="移行" style="text;html=1;strokeColor=none;fillColor=none;align=center;verticalAlign=middle;whiteSpace=wrap;rounded=0;fontSize=24;fontStyle=1;fontColor=#FF6600;" vertex="1" parent="1">
          <mxGeometry x="750" y="400" width="100" height="40" as="geometry"/>
        </mxCell>

      </root>
    </mxGraphModel>
  </diagram>
</mxfile>
